Format                                   : Matroska
Format version                           : Version 2
File size                                : 1 008 MiB
Duration                                 : 1h 47mn
Overall bit rate                         : 1 307 Kbps
Movie name                               : Dylan Dog Dead Of Night [2011].720p.BRRip.x264.[Dual Audio].6Ch. [Hindi+English].by K@rtik [ExD Exclusive]
Bit rate                                 : 874 Kbps
Width                                    : 1 280 pixels
Height                                   : 544 pixels
Display aspect ratio                     : 2.35:1
Frame rate                               : 23.976 fps
Codec ID                                 : A_AC3
Duration                                 : 1h 47mn
Bit rate mode                            : Constant
Bit rate                                 : 224 Kbps
Channel(s)                               : 2 channels
Channel positions                        : Front: L R
Sampling rate                            : 48.0 KHz
Bit depth                                : 16 bits
Stream size                              : 173 MiB (17%)
Title                                    : K@rtik
Language                                 : Hindi
Codec ID                                 : A_AC3
Duration                                 : 1h 47mn
Bit rate mode                            : Constant
Bit rate                                 : 224 Kbps
Channel(s)                               : 6 channels
Channel positions                        : Front: L C R, Side: L R, LFE
Sampling rate                            : 48.0 KHz
Bit depth                                : 16 bits
Stream size                              : 173 MiB (17%)
Title                                    : K@rtik 
http://img210.imageshack.us/img210/5512/exdp.jpg 
http://img337.imageshack.us/img337/2572/32932576.png 
http://img845.imageshack.us/img845/4131/24357048.png 
http://img401.imageshack.us/img401/5034/44237300.png 
http://img193.imageshack.us/img193/6868/64457743.png 
http://img210.imageshack.us/img210/1940/11701373.png 
http://img266.imageshack.us/img266/7065/10399318.png 
http://img846.imageshack.us/img846/8255/35409153u.png 
http://img854.imageshack.us/img854/680/33103377.png 
http://img17.imageshack.us/img17/5449/26885655.png 
http://img33.imageshack.us/img33/6486/96279618.png 
http://img826.imageshack.us/img826/982/66693756.png
